<svg xmlns:dc="http://purl.org/dc/elements/1.1/" xmlns:cc="http://creativecommons.org/ns#" xmlns:rdf="http://www.w3.org/1999/02/22-rdf-syntax-ns#" xmlns:svg="http://www.w3.org/2000/svg" xmlns="http://www.w3.org/2000/svg" xmlns:sodipodi="http://sodipodi.sourceforge.net/DTD/sodipodi-0.dtd" xmlns:inkscape="http://www.inkscape.org/namespaces/inkscape" version="1.1" x="0px" y="0px" viewBox="0 0 48 60" style="enable-background:new 0 0 48 48;" xml:space="preserve"><style type="text/css">
	.st0{fill:#FFFFFF;}
	.st1{fill:url(#SVGID_1_);}
	.st2{fill:url(#SVGID_2_);}
	.st3{fill:url(#SVGID_3_);}
	.st4{fill:url(#SVGID_4_);}
	.st5{fill:url(#SVGID_5_);}
	.st6{fill:url(#SVGID_6_);}
	.st7{fill:url(#SVGID_7_);}
	.st8{fill:url(#SVGID_8_);}
	.st9{fill:url(#SVGID_9_);}
	.st10{fill:url(#SVGID_10_);}
	.st11{fill:url(#SVGID_11_);}
	.st12{fill:url(#SVGID_12_);}
	.st13{fill:url(#SVGID_13_);}
	.st14{fill:url(#SVGID_14_);}
	.st15{fill:url(#SVGID_15_);}
	.st16{fill:url(#SVGID_16_);}
	.st17{fill:url(#SVGID_17_);}
	.st18{fill:url(#SVGID_18_);}
	.st19{fill:url(#SVGID_19_);}
	.st20{fill:url(#SVGID_20_);}
	.st21{fill:url(#SVGID_21_);}
	.st22{fill:url(#SVGID_22_);}
	.st23{fill:url(#SVGID_23_);}
	.st24{fill:url(#SVGID_24_);}
	.st25{fill:url(#SVGID_25_);}
	.st26{fill:url(#SVGID_26_);}
	.st27{fill:url(#SVGID_27_);}
	.st28{fill:url(#SVGID_28_);}
	.st29{fill:url(#SVGID_29_);}
	.st30{fill:url(#SVGID_30_);}
	.st31{fill:url(#SVGID_31_);}
	.st32{fill:url(#SVGID_32_);}
	.st33{fill:url(#SVGID_33_);}
	.st34{fill:url(#SVGID_34_);}
	.st35{fill:url(#SVGID_35_);}
	.st36{fill:url(#SVGID_36_);}
	.st37{fill:url(#SVGID_37_);}
	.st38{fill:url(#SVGID_38_);}
	.st39{fill:url(#SVGID_39_);}
	.st40{fill:url(#SVGID_40_);}
	.st41{fill:url(#SVGID_41_);}
	.st42{fill:url(#SVGID_42_);}
	.st43{fill:url(#SVGID_43_);}
	.st44{fill:url(#SVGID_44_);}
	.st45{fill:url(#SVGID_45_);}
	.st46{fill:url(#SVGID_46_);}
	.st47{fill:url(#SVGID_47_);}
</style><path style="" d="M 10 0 C 4.477 0 0 4.477 0 10 L 0 38 C 0 43.523 4.477 48 10 48 L 38 48 C 43.523 48 48 43.523 48 38 L 48 10 C 48 4.477 43.523 0 38 0 L 10 0 z M 31 12 L 33.5 12 C 33.776 12 34 12.224 34 12.5 C 34 12.776 33.776 13 33.5 13 L 31.339844 13 L 30.136719 16.007812 L 33.5 16.007812 C 33.695 16.007812 33.871125 16.119875 33.953125 16.296875 C 34.035125 16.473875 34.006859 16.682078 33.880859 16.830078 L 25.5 26.691406 L 25.5 37.013672 L 30.5 37.013672 C 30.776 37.013672 31 37.237672 31 37.513672 C 31 37.789672 30.776 38.013672 30.5 38.013672 L 19.5 38.013672 C 19.224 38.013672 19 37.789672 19 37.513672 C 19 37.237672 19.224 37.013672 19.5 37.013672 L 24.5 37.013672 L 24.5 26.691406 L 19.001953 20.222656 C 18.262953 20.718656 17.396 21.001953 16.5 21.001953 C 14.019 21.001953 12 18.982953 12 16.501953 C 12 14.020953 14.019 12.001953 16.5 12.001953 C 18.811 12.001953 20.699219 13.761812 20.949219 16.007812 L 29.058594 16.007812 L 30.535156 12.314453 C 30.611156 12.125453 30.795 12 31 12 z M 16.5 13.001953 C 14.57 13.001953 13 14.571953 13 16.501953 C 13 18.431953 14.57 20.001953 16.5 20.001953 C 17.155 20.001953 17.796609 19.815656 18.349609 19.472656 L 17 17.871094 L 17 18.501953 C 17 18.777953 16.776 19.001953 16.5 19.001953 C 16.224 19.001953 16 18.777953 16 18.501953 L 16 17.707031 L 15.439453 18.267578 C 15.341453 18.364578 15.213938 18.414062 15.085938 18.414062 C 14.957936 18.414062 14.830422 18.365578 14.732422 18.267578 C 14.537422 18.072578 14.537422 17.755547 14.732422 17.560547 L 15.292969 17 L 14.5 17 C 14.224 17 14 16.776 14 16.5 C 14 16.224 14.224 16 14.5 16 L 15.292969 16 L 14.732422 15.439453 C 14.537422 15.244453 14.537422 14.927422 14.732422 14.732422 C 14.927422 14.537422 15.244453 14.537422 15.439453 14.732422 L 16 15.292969 L 16 14.5 C 16 14.224 16.224 14 16.5 14 C 16.776 14 17 14.224 17 14.5 L 17 15.292969 L 17.560547 14.732422 C 17.755547 14.537422 18.072578 14.537422 18.267578 14.732422 C 18.462578 14.927422 18.462578 15.244453 18.267578 15.439453 L 17.707031 16 L 19.964844 15.996094 C 19.719844 14.304094 18.258 13.001953 16.5 13.001953 z M 17.580078 17.007812 L 20.130859 20.007812 L 29.869141 20.007812 L 32.419922 17.007812 L 17.580078 17.007812 z M 20.980469 21.007812 L 24.119141 24.699219 C 24.211141 24.588219 24.345 24.513672 24.5 24.513672 C 24.776 24.513672 25 24.737672 25 25.013672 C 25 25.197672 24.896047 25.3515 24.748047 25.4375 L 25 25.734375 L 26.232422 24.285156 C 26.095422 24.196156 26 24.049047 26 23.873047 C 26 23.597047 26.224 23.373047 26.5 23.373047 C 26.647 23.373047 26.775187 23.438063 26.867188 23.539062 L 29.019531 21.007812 L 20.980469 21.007812 z M 25.5 21.513672 A 0.5 0.5 0 0 1 26 22.013672 A 0.5 0.5 0 0 1 25.5 22.513672 A 0.5 0.5 0 0 1 25 22.013672 A 0.5 0.5 0 0 1 25.5 21.513672 z M 23.5 22.013672 A 0.5 0.5 0 0 1 24 22.513672 A 0.5 0.5 0 0 1 23.5 23.013672 A 0.5 0.5 0 0 1 23 22.513672 A 0.5 0.5 0 0 1 23.5 22.013672 z " fill="#000000" stroke="none"/><text x="0" y="63" fill="#000000" font-size="5px" font-weight="bold" font-family="'Helvetica Neue', Helvetica, Arial-Unicode, Arial, Sans-serif">Created by Jemis mali</text><text x="0" y="68" fill="#000000" font-size="5px" font-weight="bold" font-family="'Helvetica Neue', Helvetica, Arial-Unicode, Arial, Sans-serif">from the Noun Project</text></svg>